# xmcd
#
# Track frame offsets: 
#        150
#        22256
#        43224
#        62176
#        82386
#        103429
#        125196
#        145824
#        161524
#        183738
#        198653
#        213873
#        236600
#        259010
#        281454
#        302689
#
# Disc length: 4369 seconds
#
# Revision: 0
# Processed by: cddbd v1.5.2PL0 Copyright (c) Steve Scherf et al.
# Submitted via: ExactAudioCopy v0.95b4
#
DISCID=02110f10
DTITLE=Various Artist - Cryotank Vol. 2
DYEAR=2006
DGENRE=Compilation
TTITLE0=Swarf - Dont Silence
TTITLE1=Swarf - Parlour Tricks
TTITLE2=Blue October - The Miracle's Gone [Revisitation]
TTITLE3=Blue October - Nervous Energy [Almost Alive]
TTITLE4=Mono Chrome - Covered in You
TTITLE5=Mono Chrome - Thunder [Process of Elimination vs Mono Chrome]
TTITLE6=Octolab - The Doll
TTITLE7=Octolab - MindControl
TTITLE8=Inertia - Paralysed
TTITLE9=Inertia - Pressure
TTITLE10=Fiction 8 - After All
TTITLE11=Fiction 8 - Sometimes
TTITLE12=Kifeladder - The World Tears Its Heart Out [AntiValium]
TTITLE13=Knifeladder - None of You
TTITLE14=Mono Chrome - Fall in to You
TTITLE15=Inertia - Slow Motion [Aslan Faction]
EXTD=
EXTT0=
EXTT1=
EXTT2=
EXTT3=
EXTT4=
EXTT5=
EXTT6=
EXTT7=
EXTT8=
EXTT9=
EXTT10=
EXTT11=
EXTT12=
EXTT13=
EXTT14=
EXTT15=
PLAYORDER=
